<svg preserveAspectRatio="none" width="100%" height="100%" overflow="visible" style="display: block;" viewBox="0 0 58.2642 16" fill="none" xmlns="http://www.w3.org/2000/svg">
<g id="Frame 480966246">
<path id="Vector" d="M15.1669 0H17.8182V16H15.1669V0ZM27.0976 10.896C27.0976 13.3446 24.9653 13.5399 24.331 13.5399C22.7462 13.5399 22.4579 12.1075 22.4579 11.2435V5.12H19.8066V11.2307C19.8066 12.7475 20.2998 13.9994 21.1641 14.8339C21.9276 15.5719 23.0717 15.975 24.3111 15.975C25.19 15.975 26.4348 15.7107 27.0976 15.1264V16H29.7488V5.12H27.0976V10.896ZM35.0514 1.28H32.4001V5.12H30.4117V7.68H32.4001V16H35.0514V7.68H37.0398V5.12H35.0514V1.28ZM45.3893 12.7469C44.812 13.248 44.0498 13.5258 43.2133 13.5258C41.3693 13.5258 40.0152 12.2182 40.0152 10.423C40.0152 8.62785 41.3262 7.37535 43.2133 7.37535C44.0352 7.37535 44.812 7.6397 45.4039 8.1408L45.8062 8.4749L47.5938 6.74945L47.1464 6.3597C46.0945 5.44255 44.698 4.928 43.2126 4.928C39.8985 4.928 37.4919 7.2371 37.4919 10.4096C37.4919 13.5687 39.9562 15.9603 43.2126 15.9603C44.7258 15.9603 46.1369 15.4457 47.1756 14.5139L47.6077 14.1242L45.7923 12.4L45.3893 12.7469ZM57.0568 6.0685C56.2935 5.3312 55.3984 4.928 54.1587 4.928C53.2799 4.928 52.2845 5.1923 51.6216 5.776V0H48.9703V16H51.6216V10.0064C51.6216 7.55775 53.4233 7.3632 54.0574 7.3632C55.6423 7.3632 55.5987 8.79615 55.5987 9.6589V16H58.25V9.6723C58.25 8.1555 57.9219 6.9037 57.0568 6.0685Z" fill="var(--fill-0, #0A0C0F)"/>
<path id="Vector_2" d="M43.1259 8.60035C43.6343 8.60035 44.1218 8.79535 44.4813 9.14245C44.8408 9.48955 45.0428 9.96035 45.0428 10.4513C45.0428 10.9421 44.8408 11.4129 44.4813 11.76C44.1218 12.1071 43.6343 12.3021 43.1259 12.3021C42.6175 12.3021 42.13 12.1071 41.7704 11.76C41.411 11.4129 41.209 10.9421 41.209 10.4513C41.209 9.96035 41.411 9.48955 41.7704 9.14245C42.13 8.79535 42.6175 8.60035 43.1259 8.60035Z" fill="var(--fill-0, #E94E3C)"/>
<path id="Vector_3" d="M11.4553 11.9813C10.4472 12.9829 9.0778 13.5256 7.63687 13.5256C4.68336 13.5256 2.53585 11.2856 2.53585 8.2111C2.53585 5.12245 4.68336 2.88243 7.63687 2.88243C9.0639 2.88243 10.418 3.42451 11.4414 4.41267L11.8444 4.80243L13.6168 3.09107L13.2277 2.70131C11.7582 1.24019 9.76977 0.447876 7.63687 0.447876C3.28549 0.447876 0.0145086 3.78675 0.0145086 8.2245C0.0145086 12.6488 3.30007 15.9742 7.63687 15.9742C9.78436 15.9742 11.7728 15.1679 13.2423 13.7067L13.6313 13.317L11.8736 11.5781L11.4553 11.9813Z" fill="var(--fill-0, #0A0C0F)"/>
</g>
</svg>
