<svg preserveAspectRatio="none" width="100%" height="100%" overflow="visible" style="display: block;" viewBox="0 0 1250 106.09" fill="none" xmlns="http://www.w3.org/2000/svg">
<g id="Union">
<path fill-rule="evenodd" clip-rule="evenodd" d="M178.731 23.4258C184.137 23.4258 188.604 24.7396 192.133 27.3672C194.894 29.3234 196.884 31.9195 198.103 35.1543V24.4395H209.252V79.5117C209.252 87.7704 206.699 94.2651 201.594 98.9951C196.563 103.725 189.618 106.09 180.759 106.09C173.551 106.09 167.582 104.438 162.852 101.135C158.197 97.9063 155.381 93.5893 154.405 88.1836H165.441C166.192 90.6612 167.845 92.6135 170.397 94.04C173.025 95.4664 176.517 96.1797 180.871 96.1797C186.502 96.1797 190.706 94.7905 193.484 92.0127C196.262 89.2347 197.651 85.105 197.651 79.624V70.3828C196.317 73.3895 194.216 75.8698 191.345 77.8223C187.591 80.2999 183.086 81.5391 177.83 81.5391C172.8 81.5391 168.37 80.3371 164.541 77.9346C160.712 75.532 157.746 72.1908 155.644 67.9111C153.541 63.5565 152.49 58.4882 152.49 52.707C152.49 46.851 153.579 41.708 155.756 37.2783C157.933 32.8485 160.975 29.4319 164.879 27.0293C168.858 24.6268 173.476 23.4258 178.731 23.4258ZM181.209 32.8857C176.103 32.8857 172.049 34.6509 169.046 38.1797C166.043 41.6334 164.541 46.4382 164.541 52.5947C164.541 58.6012 166.043 63.3687 169.046 66.8975C172.124 70.3512 176.216 72.0781 181.321 72.0781C186.352 72.0781 190.369 70.314 193.372 66.7852C196.45 63.2563 197.989 58.4135 197.989 52.2568C197.989 46.2504 196.45 41.5201 193.372 38.0664C190.369 34.6128 186.314 32.8858 181.209 32.8857Z" fill="var(--fill-0, #422307)"/>
<path fill-rule="evenodd" clip-rule="evenodd" d="M628.712 23.4258C634.117 23.4258 638.585 24.7396 642.113 27.3672C644.875 29.3234 646.864 31.9195 648.083 35.1543V24.4395H659.232V79.5117C659.232 87.7705 656.68 94.2651 651.574 98.9951C646.544 103.725 639.599 106.09 630.739 106.09C623.531 106.09 617.562 104.438 612.832 101.135C608.177 97.9063 605.362 93.5893 604.386 88.1836H615.422C616.173 90.6612 617.825 92.6135 620.378 94.04C623.006 95.4664 626.497 96.1797 630.852 96.1797C636.482 96.1797 640.687 94.7905 643.465 92.0127C646.243 89.2347 647.632 85.105 647.632 79.624V70.3828C646.298 73.3894 644.197 75.8698 641.325 77.8223C637.571 80.2999 633.066 81.5391 627.811 81.5391C622.78 81.539 618.351 80.3371 614.521 77.9346C610.692 75.532 607.726 72.1908 605.624 67.9111C603.522 63.5565 602.471 58.4882 602.471 52.707C602.471 46.851 603.559 41.708 605.736 37.2783C607.914 32.8485 610.955 29.4319 614.859 27.0293C618.839 24.6268 623.456 23.4258 628.712 23.4258ZM631.189 32.8857C626.084 32.8857 622.03 34.6509 619.026 38.1797C616.023 41.6334 614.522 46.4382 614.521 52.5947C614.521 58.6012 616.023 63.3687 619.026 66.8975C622.105 70.3512 626.196 72.0781 631.302 72.0781C636.332 72.0781 640.349 70.314 643.353 66.7852C646.431 63.2563 647.97 58.4135 647.97 52.2568C647.97 46.2504 646.431 41.5201 643.353 38.0664C640.349 34.6128 636.295 32.8858 631.189 32.8857Z" fill="var(--fill-0, #422307)"/>
<path d="M1061.67 61.3779C1061.67 65.3569 1062.65 68.3224 1064.6 70.2744C1066.55 72.2265 1069.33 73.2031 1072.94 73.2031C1076.16 73.2031 1079.02 72.4518 1081.5 70.9502C1084.05 69.4486 1086.04 67.3837 1087.46 64.7559C1088.97 62.053 1089.72 58.9369 1089.72 55.4082V24.4375H1101.32V81.875H1090.17V71.1631C1088.32 74.4456 1085.77 77.1529 1082.51 79.2842C1078.68 81.7618 1074.29 83.001 1069.33 83.001C1065.5 83.001 1062.12 82.2124 1059.2 80.6357C1056.27 78.984 1053.98 76.7318 1052.33 73.8789C1050.75 71.0258 1049.96 67.7591 1049.96 64.0801V24.4375H1061.67V61.3779Z" fill="var(--fill-0, #422307)"/>
<path d="M708.828 24.4365H725.158V33.7842H708.828V64.6426C708.828 67.6456 709.616 69.8606 711.192 71.2871C712.769 72.7137 715.323 73.4268 718.852 73.4268C720.203 73.4267 721.404 73.3141 722.455 73.0889C723.506 72.8636 724.407 72.6011 725.158 72.3008V81.7607C724.332 82.1361 723.168 82.4369 721.667 82.6621C720.165 82.8874 718.476 83 716.599 83C709.916 83 704.998 81.4602 701.845 78.3818C698.767 75.2284 697.228 70.6107 697.228 64.5293V33.7842H685.74V24.4365H697.228V11.2598L708.828 6.86719V24.4365Z" fill="var(--fill-0, #422307)"/>
<path d="M1029.6 24.4365H1045.93V33.7842H1029.6V64.6426C1029.6 67.6456 1030.39 69.8606 1031.97 71.2871C1033.54 72.7137 1036.1 73.4268 1039.63 73.4268C1040.98 73.4267 1042.18 73.3141 1043.23 73.0889C1044.28 72.8636 1045.18 72.6011 1045.93 72.3008V81.7607C1045.11 82.1361 1043.94 82.4369 1042.44 82.6621C1040.94 82.8874 1039.25 83 1037.37 83C1030.69 83 1025.77 81.4601 1022.62 78.3818C1019.54 75.2284 1018 70.6109 1018 64.5293V33.7842H1006.51V24.4365H1018V11.2598L1029.6 6.86719V24.4365Z" fill="var(--fill-0, #422307)"/>
<path d="M239.69 23.3086C246.373 23.3086 251.742 24.8102 255.796 27.8135C259.925 30.8167 262.253 35.0212 262.778 40.4268H251.967C251.516 37.724 250.202 35.6599 248.024 34.2334C245.922 32.7318 243.032 31.9805 239.353 31.9805C235.899 31.9805 233.233 32.6191 231.356 33.8955C229.555 35.0968 228.653 36.7857 228.653 38.9629C228.653 40.7648 229.329 42.2665 230.681 43.4678C232.107 44.669 234.435 45.6829 237.663 46.5088L247.124 48.874C252.605 50.2255 256.734 52.4404 259.512 55.5186C262.29 58.5217 263.679 62.1629 263.679 66.4424C263.679 71.6228 261.652 75.6773 257.598 78.6055C253.618 81.5336 248.024 82.998 240.816 82.998C233.309 82.998 227.34 81.3464 222.91 78.043C218.48 74.7395 215.965 70.0844 215.364 64.0781H226.176C226.701 67.3815 228.203 69.9344 230.681 71.7363C233.233 73.4632 236.687 74.3262 241.042 74.3262C244.871 74.3262 247.799 73.6502 249.826 72.2988C251.853 70.9474 252.867 69.0332 252.867 66.5557C252.867 64.7538 252.267 63.2521 251.065 62.0508C249.939 60.7744 247.686 59.7234 244.308 58.8975L235.073 56.7568C229.292 55.3303 224.974 53.2282 222.121 50.4502C219.343 47.5972 217.954 44.1058 217.954 39.9766C217.954 34.796 219.869 30.7416 223.698 27.8135C227.602 24.8102 232.933 23.3086 239.69 23.3086Z" fill="var(--fill-0, #422307)"/>
<path fill-rule="evenodd" clip-rule="evenodd" d="M392.751 23.3086C398.307 23.3086 403.113 24.5095 407.167 26.9121C411.296 29.2396 414.45 32.5064 416.627 36.7109C418.879 40.9154 420.006 45.9083 420.006 51.6895C420.006 52.5903 419.968 53.4535 419.893 54.2793C419.893 55.0301 419.818 55.8187 419.668 56.6445H375.578C376.056 61.4801 377.537 65.3846 380.024 68.3574C383.178 72.0364 387.533 73.876 393.089 73.876C396.467 73.876 399.395 73.2 401.873 71.8486C404.351 70.4221 406.19 68.3572 407.392 65.6543H418.429C416.552 71.0601 413.361 75.3025 408.856 78.3809C404.427 81.4592 399.095 82.998 392.863 82.998C387.082 82.998 381.977 81.7216 377.547 79.1689C373.192 76.6163 369.776 73.0876 367.299 68.583C364.821 64.0782 363.582 58.8972 363.582 53.041C363.582 47.1097 364.783 41.9288 367.186 37.499C369.663 32.9943 373.117 29.5031 377.547 27.0254C381.977 24.5477 387.045 23.3086 392.751 23.3086ZM392.751 32.4307C387.42 32.4307 383.178 34.2703 380.024 37.9492C377.825 40.5244 376.412 43.8284 375.784 47.8604H408.354C407.912 43.3907 406.578 39.8615 404.352 37.2734C401.574 34.0449 397.706 32.4307 392.751 32.4307Z" fill="var(--fill-0, #422307)"/>
<path fill-rule="evenodd" clip-rule="evenodd" d="M753.39 23.3086C760.898 23.3086 766.529 25.0728 770.283 28.6016C774.037 32.0552 775.914 37.1609 775.914 43.918V70.835C775.914 72.5617 776.027 74.3261 776.252 76.1279C776.477 77.9299 776.815 79.8449 777.266 81.8721H765.891C765.515 80.4455 765.253 78.8685 765.103 77.1416C765.048 75.8897 765.014 74.4405 764.999 72.7939C763.581 75.7332 761.477 78.0839 758.684 79.8447C755.23 81.947 751.025 82.998 746.069 82.998C740.213 82.998 735.558 81.5717 732.104 78.7188C728.651 75.7906 726.924 71.8488 726.924 66.8936C726.924 61.788 728.726 57.7709 732.33 54.8428C736.009 51.8396 741.264 49.8119 748.097 48.7607L764.427 46.1367V43.4678C764.427 39.7889 763.488 37.048 761.611 35.2461C759.809 33.3692 756.919 32.4307 752.939 32.4307C749.11 32.4307 746.032 33.182 743.704 34.6836C741.452 36.1852 740.138 38.3248 739.763 41.1025H728.613C729.139 35.6968 731.579 31.3798 735.934 28.1514C740.288 24.9229 746.107 23.3086 753.39 23.3086ZM749.898 56.6445C746.069 57.2452 743.179 58.259 741.227 59.6855C739.35 61.1121 738.411 63.177 738.411 65.8799C738.411 68.5076 739.275 70.4972 741.002 71.8486C742.804 73.1249 745.394 73.7627 748.772 73.7627C753.277 73.7627 756.994 72.6744 759.922 70.4971C762.925 68.3197 764.427 65.579 764.427 62.2754V54.3496L749.898 56.6445Z" fill="var(--fill-0, #422307)"/>
<path fill-rule="evenodd" clip-rule="evenodd" d="M918.532 23.3086C924.088 23.3086 928.894 24.5095 932.948 26.9121C937.078 29.2396 940.231 32.5064 942.408 36.7109C944.661 40.9154 945.787 45.9083 945.787 51.6895C945.787 52.5903 945.749 53.4535 945.674 54.2793C945.674 55.0301 945.599 55.8187 945.449 56.6445H901.359C901.837 61.4801 903.318 65.3846 905.806 68.3574C908.959 72.0364 913.314 73.876 918.87 73.876C922.249 73.876 925.177 73.2 927.654 71.8486C930.132 70.4221 931.972 68.3572 933.173 65.6543H944.21C942.333 71.0601 939.142 75.3025 934.638 78.3809C930.208 81.4592 924.876 82.998 918.645 82.998C912.863 82.998 907.758 81.7216 903.328 79.1689C898.974 76.6163 895.558 73.0876 893.08 68.583C890.602 64.0782 889.363 58.8972 889.363 53.041C889.363 47.1097 890.564 41.9288 892.967 37.499C895.444 32.9943 898.898 29.5031 903.328 27.0254C907.758 24.5477 912.826 23.3086 918.532 23.3086ZM918.532 32.4307C913.202 32.4307 908.959 34.2703 905.806 37.9492C903.606 40.5244 902.193 43.8284 901.565 47.8604H934.135C933.693 43.3907 932.36 39.8615 930.133 37.2734C927.355 34.0449 923.488 32.4307 918.532 32.4307Z" fill="var(--fill-0, #422307)"/>
<path fill-rule="evenodd" clip-rule="evenodd" d="M1172.59 23.3086C1178.15 23.3086 1182.95 24.5095 1187.01 26.9121C1191.14 29.2396 1194.29 32.5064 1196.47 36.7109C1198.72 40.9154 1199.85 45.9083 1199.85 51.6895C1199.85 52.5903 1199.81 53.4535 1199.73 54.2793C1199.73 55.0301 1199.66 55.8187 1199.51 56.6445H1155.42C1155.9 61.4802 1157.38 65.3846 1159.86 68.3574C1163.02 72.0364 1167.37 73.876 1172.93 73.876C1176.31 73.876 1179.24 73.2 1181.71 71.8486C1184.19 70.4221 1186.03 68.3572 1187.23 65.6543H1198.27C1196.39 71.0601 1193.2 75.3025 1188.7 78.3809C1184.27 81.4592 1178.93 82.998 1172.7 82.998C1166.92 82.998 1161.82 81.7216 1157.39 79.1689C1153.03 76.6163 1149.62 73.0876 1147.14 68.583C1144.66 64.0782 1143.42 58.8972 1143.42 53.041C1143.42 47.1097 1144.62 41.9288 1147.03 37.499C1149.5 32.9942 1152.96 29.5031 1157.39 27.0254C1161.82 24.5477 1166.88 23.3086 1172.59 23.3086ZM1172.59 32.4307C1167.26 32.4307 1163.02 34.2703 1159.86 37.9492C1157.66 40.5244 1156.25 43.8284 1155.62 47.8604H1188.19C1187.75 43.3907 1186.42 39.8615 1184.19 37.2734C1181.41 34.0449 1177.55 32.4307 1172.59 32.4307Z" fill="var(--fill-0, #422307)"/>
<path d="M1226.01 23.3086C1232.69 23.3086 1238.06 24.8102 1242.12 27.8135C1246.25 30.8167 1248.57 35.0212 1249.1 40.4268H1238.29C1237.84 37.724 1236.52 35.6599 1234.35 34.2334C1232.24 32.7318 1229.35 31.9805 1225.67 31.9805C1222.22 31.9805 1219.55 32.6192 1217.68 33.8955C1215.88 35.0968 1214.97 36.7857 1214.97 38.9629C1214.97 40.7648 1215.65 42.2665 1217 43.4678C1218.43 44.669 1220.76 45.6829 1223.98 46.5088L1233.45 48.874C1238.93 50.2255 1243.06 52.4404 1245.83 55.5186C1248.61 58.5217 1250 62.1629 1250 66.4424C1250 71.6228 1247.97 75.6773 1243.92 78.6055C1239.94 81.5336 1234.35 82.998 1227.14 82.998C1219.63 82.998 1213.66 81.3464 1209.23 78.043C1204.8 74.7395 1202.29 70.0844 1201.69 64.0781H1212.5C1213.02 67.3815 1214.52 69.9344 1217 71.7363C1219.55 73.4632 1223.01 74.3262 1227.36 74.3262C1231.19 74.3262 1234.12 73.6502 1236.15 72.2988C1238.17 70.9474 1239.19 69.0332 1239.19 66.5557C1239.19 64.7538 1238.59 63.252 1237.39 62.0508C1236.26 60.7744 1234.01 59.7234 1230.63 58.8975L1221.39 56.7568C1215.61 55.3303 1211.3 53.2282 1208.44 50.4502C1205.66 47.5972 1204.28 44.1059 1204.28 39.9766C1204.28 34.796 1206.19 30.7416 1210.02 27.8135C1213.92 24.8103 1219.25 23.3086 1226.01 23.3086Z" fill="var(--fill-0, #422307)"/>
<path d="M11.9375 37.3545L49.666 0.789062H65.9961L24.4385 39.7559L68.249 81.877H51.4678L11.9375 42.4502V81.877H0V0.789062H11.9375V37.3545Z" fill="var(--fill-0, #422307)"/>
<path fill-rule="evenodd" clip-rule="evenodd" d="M534.214 0.789062C542.923 0.789062 550.507 2.44057 556.964 5.74414C563.421 9.04772 568.414 13.7407 571.942 19.8223C575.546 25.8287 577.349 32.9237 577.349 41.1074C577.349 49.2912 575.546 56.4616 571.942 62.6182C568.338 68.6997 563.308 73.4299 556.851 76.8086C550.469 80.1871 542.961 81.8769 534.327 81.877H505.721V0.789062H534.214ZM517.658 71.9658H534.214C540.671 71.9658 546.19 70.6523 550.77 68.0244C555.425 65.3966 558.991 61.7546 561.469 57.0996C563.946 52.4448 565.185 47.0392 565.186 40.8828C565.186 34.8013 563.946 29.5078 561.469 25.0029C559.066 20.4981 555.537 17.007 550.882 14.5293C546.302 11.9765 540.746 10.7002 534.214 10.7002H517.658V71.9658Z" fill="var(--fill-0, #422307)"/>
<path d="M797.863 81.877H786.15V0.789062H797.863V81.877Z" fill="var(--fill-0, #422307)"/>
<path d="M858.539 70.4775L883.823 0.789062H895.762L865.128 81.877H851.163L820.643 0.789062H833.256L858.539 70.4775Z" fill="var(--fill-0, #422307)"/>
<path d="M83.2861 81.876H71.5742V24.4385H83.2861V81.876Z" fill="var(--fill-0, #422307)"/>
<path d="M596.156 81.876H584.444V24.4385H596.156V81.876Z" fill="var(--fill-0, #422307)"/>
<path d="M681.788 81.876H670.076V24.4385H681.788V81.876Z" fill="var(--fill-0, #422307)"/>
<path d="M126.646 23.3086C132.803 23.3086 137.646 25.0355 141.175 28.4893C144.704 31.943 146.468 36.5234 146.468 42.2295V81.8721H134.868V44.9316C134.868 40.9527 133.854 37.9872 131.827 36.0352C129.875 34.083 126.946 33.1064 123.042 33.1064C119.664 33.1065 116.66 33.8578 114.032 35.3594C111.48 36.861 109.453 38.926 107.951 41.5537C106.525 44.1815 105.812 47.2976 105.812 50.9014V81.8721H94.0986V24.4346H105.248V35.3203C107.103 31.9014 109.693 29.1363 113.02 27.0254C116.924 24.5478 121.466 23.3086 126.646 23.3086Z" fill="var(--fill-0, #422307)"/>
<path d="M338.955 23.3086C344.736 23.3086 349.354 24.9983 352.808 28.377C356.261 31.6805 357.988 36.1101 357.988 41.666V81.8721H346.388V44.3691C346.388 40.4649 345.449 37.6115 343.572 35.8096C341.77 34.0078 339.18 33.1065 335.802 33.1064C332.724 33.1064 329.908 33.8578 327.355 35.3594C324.878 36.7859 322.887 38.8126 321.386 41.4404C319.959 43.9932 319.246 47.0347 319.246 50.5635V81.8721H307.646V44.3691C307.646 40.4649 306.745 37.6115 304.943 35.8096C303.141 34.0077 300.551 33.1065 297.173 33.1064C294.019 33.1064 291.166 33.8578 288.613 35.3594C286.136 36.7859 284.183 38.8127 282.757 41.4404C281.33 43.9932 280.617 47.0347 280.617 50.5635V81.8721H268.904V24.4346H280.054V35.3154C281.889 31.8992 284.403 29.1351 287.6 27.0254C291.429 24.5477 295.708 23.3086 300.438 23.3086C306.144 23.3086 310.687 24.9603 314.065 28.2637C315.963 30.0789 317.338 32.2122 318.193 34.6621C320.065 31.5447 322.556 28.9992 325.666 27.0254C329.645 24.5477 334.075 23.3086 338.955 23.3086Z" fill="var(--fill-0, #422307)"/>
<path d="M458.903 23.3086C465.06 23.3086 469.903 25.0355 473.432 28.4893C476.96 31.943 478.725 36.5234 478.725 42.2295V81.8721H467.125V44.9316C467.125 40.9527 466.111 37.9872 464.084 36.0352C462.132 34.083 459.203 33.1064 455.299 33.1064C451.92 33.1065 448.917 33.8578 446.289 35.3594C443.737 36.861 441.71 38.926 440.208 41.5537C438.782 44.1815 438.068 47.2976 438.068 50.9014V81.8721H426.355V24.4346H437.505V35.3203C439.36 31.9014 441.95 29.1363 445.276 27.0254C449.181 24.5478 453.723 23.3086 458.903 23.3086Z" fill="var(--fill-0, #422307)"/>
<path d="M984.685 23.3086C990.841 23.3086 995.684 25.0355 999.213 28.4893C1002.74 31.943 1004.51 36.5234 1004.51 42.2295V81.8721H992.906V44.9316C992.906 40.9527 991.892 37.9872 989.865 36.0352C987.913 34.083 984.984 33.1064 981.08 33.1064C977.702 33.1065 974.698 33.8578 972.07 35.3594C969.518 36.861 967.491 38.926 965.989 41.5537C964.563 44.1815 963.85 47.2976 963.85 50.9014V81.8721H952.137V24.4346H963.286V35.3203C965.141 31.9014 967.731 29.1363 971.058 27.0254C974.962 24.5478 979.504 23.3086 984.685 23.3086Z" fill="var(--fill-0, #422307)"/>
<path d="M1141.15 23.3086C1142.88 23.3086 1144.08 23.4585 1144.75 23.7588V34.7959C1144.38 34.6458 1143.85 34.5703 1143.18 34.5703C1142.5 34.4952 1141.68 34.458 1140.7 34.458C1135.07 34.4581 1130.83 35.9225 1127.97 38.8506C1125.2 41.7787 1123.81 46.133 1123.81 51.9141V81.8721H1112.09V24.4346H1123.24V35.5684C1124.64 32.0036 1126.67 29.1933 1129.33 27.1377C1132.63 24.585 1136.57 23.3086 1141.15 23.3086Z" fill="var(--fill-0, #422307)"/>
<path d="M83.9619 13.1768H71.0107V0H83.9619V13.1768Z" fill="var(--fill-0, #422307)"/>
<path d="M596.832 13.1768H583.881V0H596.832V13.1768Z" fill="var(--fill-0, #422307)"/>
<path d="M682.464 13.1768H669.513V0H682.464V13.1768Z" fill="var(--fill-0, #422307)"/>
</g>
</svg>
