<svg preserveAspectRatio="none" width="100%" height="100%" overflow="visible" style="display: block;" viewBox="0 0 94.6106 14.4" fill="none" xmlns="http://www.w3.org/2000/svg">
<g id="kingsmen">
<path id="Vector" d="M83.5735 10.8679V2.94783H85.2747V4.71389C85.7918 4.04369 86.436 3.53652 87.2071 3.19236C87.9783 2.84821 88.9083 2.67613 89.997 2.67613C91.4577 2.67613 92.5873 3.01123 93.3857 3.68142C94.1841 4.35162 94.5923 5.42936 94.6105 6.91466V10.8679H92.9094V7.29504C92.9094 6.23541 92.6553 5.45653 92.1472 4.95841C91.6482 4.45124 90.7818 4.19765 89.5479 4.19765C88.2596 4.19765 87.2253 4.49652 86.445 5.09427C85.6648 5.69201 85.2747 6.56597 85.2747 7.71617V10.8679H83.5735Z" fill="white"/>
<path id="Vector_2" d="M76.7826 9.65883C77.7534 9.65883 78.5019 9.53656 79.0281 9.29203C79.5634 9.0475 79.9444 8.69882 80.1713 8.24599H82.0085C81.7635 9.16071 81.1829 9.87166 80.2665 10.3788C79.3502 10.886 78.1843 11.1396 76.769 11.1396C75.0633 11.1396 73.7024 10.7864 72.6863 10.08C71.6701 9.36449 71.162 8.30938 71.162 6.91466C71.162 5.98182 71.3979 5.19842 71.8697 4.56445C72.3506 3.93048 73.0038 3.45954 73.8294 3.15161C74.655 2.83462 75.5895 2.67613 76.6329 2.67613C78.3204 2.67613 79.6586 3.0384 80.6476 3.76293C81.6365 4.48747 82.131 5.67842 82.131 7.33579H73.0129C73.1036 8.14184 73.462 8.73052 74.088 9.10184C74.7231 9.47317 75.6213 9.65883 76.7826 9.65883ZM76.6329 4.12973C74.6641 4.12973 73.4937 4.73653 73.1217 5.95012H80.1849C80.0125 5.32521 79.6269 4.86785 79.0281 4.57803C78.4384 4.27916 77.64 4.12973 76.6329 4.12973Z" fill="white"/>
<path id="Vector_3" d="M52.6128 10.8679V2.94783H54.314V4.55086C55.2757 3.30104 56.5776 2.67613 58.2198 2.67613C60.0979 2.67613 61.2818 3.41425 61.7718 4.89049C62.7516 3.41425 64.1352 2.67613 65.9225 2.67613C67.1292 2.67613 68.0592 2.99312 68.7124 3.62708C69.3657 4.25199 69.7013 5.22106 69.7195 6.53428V10.8679H68.0183V6.68371C68.0183 5.84144 67.8097 5.21653 67.3923 4.80898C66.9841 4.40143 66.2945 4.19765 65.3237 4.19765C64.7612 4.19765 64.2259 4.31086 63.7179 4.53728C63.2098 4.7637 62.797 5.10332 62.4794 5.55616C62.171 5.99993 62.0167 6.53428 62.0167 7.15919V10.8679H60.3156V6.68371C60.3156 5.84144 60.1069 5.21653 59.6896 4.80898C59.2813 4.40143 58.5963 4.19765 57.6346 4.19765C57.063 4.19765 56.5232 4.31086 56.0151 4.53728C55.507 4.7637 55.0942 5.10332 54.7767 5.55616C54.4682 5.99993 54.314 6.53428 54.314 7.15919V10.8679H52.6128Z" fill="white"/>
<path id="Vector_4" d="M41.9297 8.17806C41.975 8.54939 42.1293 8.84373 42.3924 9.06109C42.6646 9.27845 43.0865 9.44147 43.658 9.55015C44.2296 9.64977 45.0053 9.69958 45.9852 9.69958C46.9288 9.69958 47.641 9.66336 48.1218 9.5909C48.6027 9.50939 48.9248 9.39166 49.0881 9.23769C49.2514 9.07467 49.333 8.85279 49.333 8.57203C49.333 8.31844 49.2468 8.13278 49.0745 8.01504C48.9112 7.88825 48.5845 7.79315 48.0946 7.72976C47.6047 7.6573 46.7745 7.57579 45.6041 7.48523C44.3158 7.39466 43.3224 7.28598 42.6238 7.15919C41.9342 7.02334 41.4035 6.80598 41.0315 6.50711C40.6595 6.19918 40.4735 5.75087 40.4735 5.16219C40.4735 4.24747 40.9317 3.60444 41.848 3.23312C42.7644 2.86179 44.0255 2.67613 45.6314 2.67613C47.2554 2.67613 48.5165 2.85727 49.4147 3.21953C50.322 3.5818 50.8164 4.25652 50.8981 5.2437H49.0609C49.0246 4.93577 48.8794 4.7003 48.6254 4.53728C48.3804 4.37426 48.0084 4.26105 47.5094 4.19765C47.0104 4.13426 46.3209 4.10256 45.4408 4.10256C44.2795 4.10256 43.4675 4.18407 43.0048 4.34709C42.5421 4.51011 42.3107 4.74558 42.3107 5.05351C42.3107 5.26181 42.3969 5.42031 42.5693 5.52899C42.7417 5.63767 43.0729 5.73276 43.5628 5.81427C44.0527 5.88672 44.8375 5.96823 45.9172 6.0588L46.5296 6.11314C47.6909 6.21276 48.5709 6.32144 49.1697 6.43918C49.7685 6.54786 50.2494 6.76069 50.6123 7.07768C50.9843 7.39466 51.1703 7.86561 51.1703 8.49052C51.1703 9.48675 50.7484 10.1796 49.9046 10.569C49.0609 10.9494 47.7997 11.1396 46.1213 11.1396C44.9328 11.1396 43.9075 11.0626 43.0456 10.9087C42.1928 10.7547 41.4942 10.4603 40.9498 10.0256C40.4145 9.5909 40.1287 8.97505 40.0925 8.17806H41.9297Z" fill="white"/>
<path id="Vector_5" d="M36.9487 2.94783H38.6499V9.84902C38.6499 11.4249 38.2098 12.5751 37.3298 13.2996C36.4497 14.0332 35.175 14.4 33.5056 14.4C31.8907 14.4 30.2031 14.1872 28.443 13.7615L28.4975 12.3351C29.441 12.5162 30.244 12.6566 30.9063 12.7562C31.5777 12.8558 32.2853 12.9056 33.0293 12.9056C34.0273 12.9056 34.8075 12.7834 35.3701 12.5389C35.9416 12.2943 36.3454 11.9275 36.5813 11.4385C36.8262 10.9494 36.9487 10.3064 36.9487 9.5094C36.5495 10.0256 36.0006 10.4241 35.302 10.7049C34.6125 10.9766 33.7823 11.1124 32.8115 11.1124C31.8317 11.1124 30.9516 10.9585 30.1714 10.6505C29.3911 10.3426 28.7696 9.87619 28.3069 9.25128C27.8533 8.61731 27.6265 7.82938 27.6265 6.88749C27.6265 5.95465 27.8533 5.17578 28.3069 4.55087C28.7696 3.9169 29.3911 3.44595 30.1714 3.13802C30.9516 2.8301 31.8317 2.67613 32.8115 2.67613C33.7823 2.67613 34.6125 2.81651 35.302 3.09727C36.0006 3.36897 36.5495 3.76293 36.9487 4.27917V2.94783ZM33.2062 9.59091C34.4129 9.59091 35.3383 9.3509 35.9825 8.8709C36.6266 8.3909 36.9487 7.72976 36.9487 6.88749C36.9487 6.05427 36.6266 5.39766 35.9825 4.91766C35.3383 4.43766 34.4129 4.19765 33.2062 4.19765C31.9995 4.19765 31.0741 4.43766 30.43 4.91766C29.7858 5.39766 29.4637 6.05427 29.4637 6.88749C29.4637 7.72976 29.7858 8.3909 30.43 8.8709C31.0741 9.3509 31.9995 9.59091 33.2062 9.59091Z" fill="white"/>
<path id="Vector_6" d="M15.1469 10.8679V2.94783H16.8481V4.71389C17.3652 4.04369 18.0094 3.53652 18.7806 3.19236C19.5518 2.84821 20.4817 2.67613 21.5704 2.67613C23.0311 2.67613 24.1607 3.01123 24.9591 3.68142C25.7575 4.35162 26.1658 5.42936 26.1839 6.91466V10.8679H24.4828V7.29504C24.4828 6.23541 24.2287 5.45653 23.7207 4.95841C23.2217 4.45124 22.3552 4.19765 21.1213 4.19765C19.833 4.19765 18.7987 4.49652 18.0185 5.09427C17.2382 5.69201 16.8481 6.56597 16.8481 7.71617V10.8679H15.1469Z" fill="white"/>
<path id="Vector_7" d="M12.0032 1.9019V0H13.7043V1.9019H12.0032ZM12.0032 10.868V2.94795H13.7043V10.868H12.0032Z" fill="white"/>
<path id="Vector_8" d="M7.59388 2.94795H10.5607L5.32116 6.48005L10.5607 10.868H8.00215L3.91942 7.41742L1.70114 8.91177V10.868H0V0H1.70114V6.91477L7.59388 2.94795Z" fill="white"/>
</g>
</svg>
