<svg preserveAspectRatio="none" width="100%" height="100%" overflow="visible" style="display: block;" viewBox="0 0 94.6106 14.4" fill="none" xmlns="http://www.w3.org/2000/svg">
<g id="kingsmen">
<path id="Vector" d="M83.5736 10.8679V2.94783H85.2748V4.71389C85.7919 4.04369 86.4361 3.53652 87.2072 3.19236C87.9784 2.84821 88.9084 2.67613 89.9971 2.67613C91.4578 2.67613 92.5874 3.01123 93.3858 3.68142C94.1842 4.35162 94.5924 5.42936 94.6106 6.91466V10.8679H92.9095V7.29504C92.9095 6.23541 92.6554 5.45653 92.1473 4.95841C91.6483 4.45124 90.7819 4.19765 89.548 4.19765C88.2597 4.19765 87.2254 4.49652 86.4451 5.09427C85.6649 5.69201 85.2748 6.56597 85.2748 7.71617V10.8679H83.5736Z" fill="black"/>
<path id="Vector_2" d="M76.7827 9.65883C77.7535 9.65883 78.502 9.53656 79.0282 9.29203C79.5635 9.0475 79.9445 8.69882 80.1714 8.24599H82.0086C81.7636 9.16071 81.183 9.87166 80.2666 10.3788C79.3503 10.886 78.1844 11.1396 76.7691 11.1396C75.0634 11.1396 73.7025 10.7864 72.6864 10.08C71.6702 9.36449 71.1621 8.30938 71.1621 6.91466C71.1621 5.98182 71.398 5.19842 71.8698 4.56445C72.3507 3.93048 73.0039 3.45954 73.8295 3.15161C74.6551 2.83462 75.5896 2.67613 76.633 2.67613C78.3205 2.67613 79.6588 3.0384 80.6477 3.76293C81.6366 4.48747 82.1311 5.67842 82.1311 7.33579H73.013C73.1037 8.14184 73.4621 8.73052 74.0881 9.10184C74.7232 9.47317 75.6214 9.65883 76.7827 9.65883ZM76.633 4.12973C74.6642 4.12973 73.4938 4.73653 73.1218 5.95012H80.185C80.0126 5.32521 79.627 4.86785 79.0282 4.57803C78.4385 4.27916 77.6401 4.12973 76.633 4.12973Z" fill="black"/>
<path id="Vector_3" d="M52.6129 10.8679V2.94783H54.3141V4.55086C55.2758 3.30104 56.5777 2.67613 58.2199 2.67613C60.098 2.67613 61.2819 3.41425 61.7719 4.89049C62.7517 3.41425 64.1353 2.67613 65.9226 2.67613C67.1293 2.67613 68.0593 2.99312 68.7125 3.62708C69.3658 4.25199 69.7014 5.22106 69.7196 6.53428V10.8679H68.0184V6.68371C68.0184 5.84144 67.8098 5.21653 67.3924 4.80898C66.9842 4.40143 66.2946 4.19765 65.3239 4.19765C64.7613 4.19765 64.226 4.31086 63.718 4.53728C63.2099 4.7637 62.7971 5.10332 62.4795 5.55616C62.1711 5.99993 62.0168 6.53428 62.0168 7.15919V10.8679H60.3157V6.68371C60.3157 5.84144 60.107 5.21653 59.6897 4.80898C59.2814 4.40143 58.5964 4.19765 57.6347 4.19765C57.0631 4.19765 56.5233 4.31086 56.0152 4.53728C55.5072 4.7637 55.0943 5.10332 54.7768 5.55616C54.4683 5.99993 54.3141 6.53428 54.3141 7.15919V10.8679H52.6129Z" fill="black"/>
<path id="Vector_4" d="M41.9298 8.17806C41.9752 8.54939 42.1294 8.84373 42.3925 9.06109C42.6647 9.27845 43.0866 9.44147 43.6581 9.55015C44.2297 9.64977 45.0054 9.69958 45.9853 9.69958C46.9289 9.69958 47.6411 9.66336 48.1219 9.5909C48.6028 9.50939 48.9249 9.39166 49.0882 9.23769C49.2515 9.07467 49.3331 8.85279 49.3331 8.57203C49.3331 8.31844 49.2469 8.13278 49.0746 8.01504C48.9113 7.88825 48.5846 7.79315 48.0947 7.72976C47.6048 7.6573 46.7746 7.57579 45.6042 7.48523C44.3159 7.39466 43.3225 7.28598 42.6239 7.15919C41.9343 7.02334 41.4036 6.80598 41.0316 6.50711C40.6596 6.19918 40.4736 5.75087 40.4736 5.16219C40.4736 4.24747 40.9318 3.60444 41.8481 3.23312C42.7645 2.86179 44.0256 2.67613 45.6315 2.67613C47.2555 2.67613 48.5166 2.85727 49.4148 3.21953C50.3221 3.5818 50.8165 4.25652 50.8982 5.2437H49.061C49.0247 4.93577 48.8795 4.7003 48.6255 4.53728C48.3805 4.37426 48.0085 4.26105 47.5095 4.19765C47.0105 4.13426 46.321 4.10256 45.4409 4.10256C44.2796 4.10256 43.4676 4.18407 43.0049 4.34709C42.5422 4.51011 42.3108 4.74558 42.3108 5.05351C42.3108 5.26181 42.397 5.42031 42.5694 5.52899C42.7418 5.63767 43.073 5.73276 43.5629 5.81427C44.0528 5.88672 44.8376 5.96823 45.9173 6.0588L46.5297 6.11314C47.691 6.21276 48.571 6.32144 49.1698 6.43918C49.7686 6.54786 50.2495 6.76069 50.6124 7.07768C50.9844 7.39466 51.1704 7.86561 51.1704 8.49052C51.1704 9.48675 50.7485 10.1796 49.9047 10.569C49.061 10.9494 47.7998 11.1396 46.1214 11.1396C44.9329 11.1396 43.9076 11.0626 43.0457 10.9087C42.1929 10.7547 41.4943 10.4603 40.9499 10.0256C40.4146 9.5909 40.1289 8.97505 40.0926 8.17806H41.9298Z" fill="black"/>
<path id="Vector_5" d="M36.9488 2.94783H38.65V9.84902C38.65 11.4249 38.2099 12.5751 37.3299 13.2996C36.4498 14.0332 35.1751 14.4 33.5057 14.4C31.8908 14.4 30.2032 14.1872 28.4431 13.7615L28.4976 12.3351C29.4411 12.5162 30.2441 12.6566 30.9064 12.7562C31.5778 12.8558 32.2854 12.9056 33.0294 12.9056C34.0274 12.9056 34.8076 12.7834 35.3702 12.5389C35.9417 12.2943 36.3455 11.9275 36.5814 11.4385C36.8263 10.9494 36.9488 10.3064 36.9488 9.5094C36.5496 10.0256 36.0007 10.4241 35.3021 10.7049C34.6126 10.9766 33.7824 11.1124 32.8116 11.1124C31.8318 11.1124 30.9517 10.9585 30.1715 10.6505C29.3912 10.3426 28.7697 9.87619 28.307 9.25128C27.8534 8.61731 27.6266 7.82938 27.6266 6.88749C27.6266 5.95465 27.8534 5.17578 28.307 4.55087C28.7697 3.9169 29.3912 3.44595 30.1715 3.13802C30.9517 2.8301 31.8318 2.67613 32.8116 2.67613C33.7824 2.67613 34.6126 2.81651 35.3021 3.09727C36.0007 3.36897 36.5496 3.76293 36.9488 4.27917V2.94783ZM33.2063 9.59091C34.413 9.59091 35.3384 9.3509 35.9826 8.8709C36.6267 8.3909 36.9488 7.72976 36.9488 6.88749C36.9488 6.05427 36.6267 5.39766 35.9826 4.91766C35.3384 4.43766 34.413 4.19765 33.2063 4.19765C31.9996 4.19765 31.0742 4.43766 30.4301 4.91766C29.7859 5.39766 29.4638 6.05427 29.4638 6.88749C29.4638 7.72976 29.7859 8.3909 30.4301 8.8709C31.0742 9.3509 31.9996 9.59091 33.2063 9.59091Z" fill="black"/>
<path id="Vector_6" d="M15.147 10.8679V2.94783H16.8482V4.71389C17.3653 4.04369 18.0095 3.53652 18.7807 3.19236C19.5519 2.84821 20.4818 2.67613 21.5705 2.67613C23.0313 2.67613 24.1608 3.01123 24.9592 3.68142C25.7576 4.35162 26.1659 5.42936 26.184 6.91466V10.8679H24.4829V7.29504C24.4829 6.23541 24.2289 5.45653 23.7208 4.95841C23.2218 4.45124 22.3553 4.19765 21.1214 4.19765C19.8331 4.19765 18.7988 4.49652 18.0186 5.09427C17.2383 5.69201 16.8482 6.56597 16.8482 7.71617V10.8679H15.147Z" fill="black"/>
<path id="Vector_7" d="M12.0033 1.9019V0H13.7044V1.9019H12.0033ZM12.0033 10.868V2.94795H13.7044V10.868H12.0033Z" fill="black"/>
<path id="Vector_8" d="M7.59398 2.94795H10.5608L5.32126 6.48005L10.5608 10.868H8.00225L3.91952 7.41742L1.70124 8.91177V10.868H0.000102043V0H1.70124V6.91477L7.59398 2.94795Z" fill="black"/>
</g>
</svg>
