<svg preserveAspectRatio="none" width="100%" height="100%" overflow="visible" style="display: block;" viewBox="0 0 16 15.36" fill="none" xmlns="http://www.w3.org/2000/svg">
<g id="Frame">
<path id="Vector" d="M7.27475 0.508733C7.48653 0.0796006 8.09843 0.0796006 8.31027 0.508733L10.2459 4.43075C10.33 4.60115 10.4925 4.71926 10.6806 4.74659L15.0088 5.37552C15.4824 5.44433 15.6715 6.02631 15.3288 6.36035L12.1969 9.41318C12.0608 9.54586 11.9987 9.73696 12.0309 9.92429L12.7702 14.2349C12.8511 14.7066 12.356 15.0663 11.9324 14.8436L8.06119 12.8084C7.89299 12.7199 7.69203 12.7199 7.52384 12.8084L3.65256 14.8436C3.22897 15.0663 2.73391 14.7066 2.81481 14.2349L3.55416 9.92429C3.58628 9.73696 3.52419 9.54586 3.3881 9.41318L0.256191 6.36035C-0.0864922 6.02631 0.102604 5.44433 0.57618 5.37552L4.90438 4.74659C5.09244 4.71926 5.255 4.60115 5.3391 4.43075L7.27475 0.508733Z" fill="var(--fill-0, #E94E3C)"/>
</g>
</svg>
